<svg width="663" height="129" viewBox="0 0 663 129" fill="none" xmlns="http://www.w3.org/2000/svg">
<path d="M16.2699 52.8891C38.6205 52.0213 56.7985 71.6226 59.7766 93.2088C60.4705 97.6146 60.987 105.145 59.8244 109.154C55.0535 110.853 49.6115 111.162 44.5494 110.934C21.2182 110.017 0.817444 89.7122 0.0712117 65.9313C-0.0425432 63.6072 -0.231378 59.8683 1.42034 58.1858C5.09008 54.4493 11.3125 53.0968 16.2699 52.8891Z" fill="#6B91DD"/>
<path d="M78.7919 30.0729C90.5609 38.9354 95.6913 56.5334 93.5095 71.1034C91.2094 86.8712 80.2184 100.744 65.8648 107.038C67.6439 87.1966 59.1259 66.9445 42.636 55.8249C50.633 42.8381 64.0401 33.3225 78.7919 30.0729Z" fill="#FFD17B"/>
<path d="M45.7461 17.0261C56.0796 16.6776 66.4131 19.8302 74.8059 25.9624C59.7675 30.0636 46.7676 40.1078 38.4498 53.3992C27.1585 47.724 10.6754 45.9076 0.908455 55.4209C4.72834 34.0656 24.3715 17.3007 45.7461 17.0261Z" fill="#DD3DBA"/>
<path d="M93.0545 72.2227L93.1068 72.3104C90.7475 87.6004 80.2297 100.952 66.2606 107.073C66.454 104.171 66.5496 101.236 66.3971 98.3254C78.264 93.7811 88.9206 84.6255 93.0545 72.2227Z" fill="#FBBF52"/>
<path d="M6.42557 87.4551C19.7394 100.98 40.4656 104.428 58.3615 100.278C58.9235 100.179 59.6674 100.052 60.2111 99.9572C60.5774 101.617 60.1452 106.782 59.8039 108.979C39.8559 114.966 16.8046 105.748 6.42557 87.4551Z" fill="#4877D0"/>
<path d="M15.9237 53.1256C37.7988 52.2762 55.59 71.4605 58.5048 92.5874C59.1839 96.8995 59.6894 104.27 58.5515 108.194C53.8822 109.856 48.5559 110.159 43.6015 109.935C20.7668 109.038 0.800051 89.1652 0.0696965 65.8902C-0.041638 63.6156 -0.226455 59.9563 1.39012 58.3096C4.98178 54.6525 11.0718 53.3289 15.9237 53.1256Z" fill="#6B91DD"/>
<path d="M77.1154 30.7947C88.6341 39.4686 93.6553 56.6922 91.5199 70.9522C89.2687 86.3846 78.5116 99.9624 64.4634 106.122C66.2047 86.703 57.8679 66.8818 41.7289 55.9987C49.5557 43.2883 62.6776 33.9751 77.1154 30.7947Z" fill="#FFD17B"/>
<path d="M44.7728 18.0255C54.8864 17.6844 65 20.77 73.2143 26.7717C58.4959 30.7857 45.7725 40.6161 37.6318 53.6247C26.5807 48.0703 10.4483 46.2926 0.889126 55.6035C4.62774 34.7025 23.853 18.2943 44.7728 18.0255Z" fill="#DD3DBA"/>
<path d="M91.0746 72.0477L91.1258 72.1336C88.8167 87.0983 78.5227 100.166 64.8508 106.156C65.0401 103.317 65.1336 100.444 64.9844 97.5951C76.5989 93.1475 87.0287 84.1867 91.0746 72.0477Z" fill="#FBBF52"/>
<path d="M6.28885 86.9561C19.3195 100.193 39.6046 103.568 57.1198 99.5061C57.6698 99.409 58.3979 99.2848 58.9301 99.1921C59.2886 100.816 58.8655 105.872 58.5315 108.022C39.0079 113.881 16.447 104.86 6.28885 86.9561Z" fill="#4877D0"/>
<path d="M171.088 107H154.832L132.816 72.44L132.688 107H119.504V29.304H140.112C157.435 29.304 166.096 37.112 166.096 52.728C166.096 58.616 164.56 63.5227 161.488 67.448C158.501 71.3733 154.405 73.6347 149.2 74.232L171.088 107ZM132.688 67.064H136.656C147.493 67.064 152.912 62.4133 152.912 53.112C152.912 44.152 147.536 39.672 136.784 39.672H132.688V67.064ZM186.22 82.936C186.22 87.8 187.287 91.8107 189.42 94.968C191.553 98.1253 194.497 99.704 198.252 99.704C204.14 99.704 207.895 96.8027 209.516 91L221.292 92.92C217.452 103.416 209.772 108.664 198.252 108.664C190.572 108.664 184.428 106.232 179.82 101.368C175.297 96.4187 173.036 90.0187 173.036 82.168C173.036 73.8907 175.212 67.2773 179.564 62.328C184.001 57.2933 189.975 54.776 197.484 54.776C205.079 54.776 210.967 57.1653 215.148 61.944C219.415 66.6373 221.548 73.08 221.548 81.272V82.936H186.22ZM210.028 76.024C210.028 72.5253 208.919 69.4533 206.7 66.808C204.567 64.1627 201.751 62.84 198.252 62.84C194.839 62.84 192.023 64.248 189.804 67.064C187.671 69.7947 186.604 72.7813 186.604 76.024H210.028ZM276.117 107H263.957V102.392C260.373 106.573 255.04 108.664 247.957 108.664C240.874 108.664 235.2 105.933 230.933 100.472C226.752 95.0107 224.661 88.6107 224.661 81.272C224.661 73.9333 226.794 67.704 231.061 62.584C235.413 57.3787 240.96 54.776 247.701 54.776C254.869 54.776 260.288 56.9093 263.957 61.176V56.44H276.117V107ZM265.365 81.656C265.365 76.9627 264.042 73.1227 261.397 70.136C258.752 67.064 255.338 65.528 251.157 65.528C247.061 65.528 243.69 67.0213 241.045 70.008C238.485 72.9093 237.205 76.792 237.205 81.656C237.205 86.52 238.528 90.4453 241.173 93.432C243.818 96.4187 247.232 97.912 251.413 97.912C255.594 97.912 258.965 96.4613 261.525 93.56C264.085 90.6587 265.365 86.6907 265.365 81.656ZM313.503 66.936C310.772 64.376 307.914 63.096 304.927 63.096C300.404 63.096 298.143 65.144 298.143 69.24C298.143 71.544 300.191 73.4213 304.287 74.872C311.796 77.6027 316.447 80.12 318.239 82.424C320.031 84.6427 320.927 87.416 320.927 90.744C320.927 96.2053 319.007 100.557 315.167 103.8C311.412 107.043 306.762 108.664 301.215 108.664C294.047 108.664 288.116 105.848 283.423 100.216L288.927 93.176C293.194 97.4427 297.119 99.576 300.703 99.576C305.908 99.576 308.511 97.0587 308.511 92.024C308.511 89.464 307.146 87.5867 304.415 86.392C301.684 85.112 299.594 84.1733 298.143 83.576C290.292 80.1627 286.367 76.024 286.367 71.16C286.367 66.296 287.818 62.3707 290.719 59.384C293.706 56.312 297.588 54.776 302.367 54.776C309.194 54.776 314.612 56.5253 318.623 60.024L313.503 66.936ZM378.409 81.656C378.409 89.592 375.977 96.0773 371.113 101.112C366.249 106.147 359.849 108.664 351.913 108.664C344.062 108.664 337.662 106.147 332.713 101.112C327.764 96.0773 325.289 89.6347 325.289 81.784C325.289 73.848 327.721 67.3627 332.585 62.328C337.449 57.2933 343.849 54.776 351.785 54.776C359.721 54.776 366.121 57.2933 370.985 62.328C375.934 67.2773 378.409 73.72 378.409 81.656ZM337.833 81.912C337.833 86.6053 339.156 90.4453 341.801 93.432C344.446 96.4187 347.86 97.912 352.041 97.912C356.222 97.912 359.55 96.3333 362.025 93.176C364.585 89.9333 365.865 86.136 365.865 81.784C365.865 77.3467 364.585 73.5493 362.025 70.392C359.465 67.1493 356.094 65.528 351.913 65.528C347.817 65.528 344.446 67.064 341.801 70.136C339.156 73.208 337.833 77.1333 337.833 81.912ZM397.661 61.048C401.16 56.8667 406.322 54.776 413.149 54.776C424.754 54.776 430.557 61.9013 430.557 76.152V107H418.269V80.248C418.269 69.5813 414.984 64.248 408.413 64.248C401.245 64.248 397.661 69.9653 397.661 81.4V107H385.245V56.44H397.661V61.048ZM454.31 107H441.894V19.576H454.31V107ZM513.367 107H501.207V102.392C497.623 106.573 492.29 108.664 485.207 108.664C478.124 108.664 472.45 105.933 468.183 100.472C464.002 95.0107 461.911 88.6107 461.911 81.272C461.911 73.9333 464.044 67.704 468.311 62.584C472.663 57.3787 478.21 54.776 484.951 54.776C492.119 54.776 497.538 56.9093 501.207 61.176V56.44H513.367V107ZM502.615 81.656C502.615 76.9627 501.292 73.1227 498.647 70.136C496.002 67.064 492.588 65.528 488.407 65.528C484.311 65.528 480.94 67.0213 478.295 70.008C475.735 72.9093 474.455 76.792 474.455 81.656C474.455 86.52 475.778 90.4453 478.423 93.432C481.068 96.4187 484.482 97.912 488.663 97.912C492.844 97.912 496.215 96.4613 498.775 93.56C501.335 90.6587 502.615 86.6907 502.615 81.656ZM517.857 56.44H532.193L545.377 86.776L559.201 56.44H573.281L537.441 128.12H523.617L539.233 99.192L517.857 56.44ZM586.97 82.936C586.97 87.8 588.037 91.8107 590.17 94.968C592.303 98.1253 595.247 99.704 599.002 99.704C604.89 99.704 608.645 96.8027 610.266 91L622.042 92.92C618.202 103.416 610.522 108.664 599.002 108.664C591.322 108.664 585.178 106.232 580.57 101.368C576.047 96.4187 573.786 90.0187 573.786 82.168C573.786 73.8907 575.962 67.2773 580.314 62.328C584.751 57.2933 590.725 54.776 598.234 54.776C605.829 54.776 611.717 57.1653 615.898 61.944C620.165 66.6373 622.298 73.08 622.298 81.272V82.936H586.97ZM610.778 76.024C610.778 72.5253 609.669 69.4533 607.45 66.808C605.317 64.1627 602.501 62.84 599.002 62.84C595.589 62.84 592.773 64.248 590.554 67.064C588.421 69.7947 587.354 72.7813 587.354 76.024H610.778ZM641.411 61.688C644.568 57.08 649.518 54.776 656.259 54.776C658.392 54.776 660.355 55.2027 662.147 56.056L660.611 67.32C658.734 66.1253 656.686 65.528 654.467 65.528C645.763 65.528 641.411 71.7573 641.411 84.216V107H628.995V56.44H641.411V61.688Z" fill="black"/>
</svg>
