<svg width="92" height="92" viewBox="0 0 92 92" fill="none" xmlns="http://www.w3.org/2000/svg">
<path d="M15.9237 35.1256C37.7988 34.2762 55.59 53.4605 58.5048 74.5874C59.1839 78.8995 59.6894 86.2701 58.5515 90.1937C53.8822 91.8562 48.5559 92.1588 43.6015 91.9352C20.7668 91.0385 0.800051 71.1652 0.0696965 47.8902C-0.041638 45.6156 -0.226455 41.9563 1.39012 40.3096C4.98178 36.6525 11.0718 35.3289 15.9237 35.1256Z" fill="#6B91DD"/>
<path d="M77.1154 12.7947C88.6341 21.4687 93.6553 38.6923 91.5199 52.9523C89.2687 68.3846 78.5116 81.9625 64.4634 88.1223C66.2047 68.7031 57.8679 48.8819 41.7289 37.9988C49.5557 25.2883 62.6776 15.9752 77.1154 12.7947Z" fill="#FFD17B"/>
<path d="M44.7728 0.0255265C54.8864 -0.315557 65 2.77001 73.2143 8.77173C58.4959 12.7857 45.7725 22.6161 37.6318 35.6247C26.5807 30.0703 10.4483 28.2926 0.889126 37.6035C4.62774 16.7025 23.853 0.294328 44.7728 0.0255265Z" fill="#DD3DBA"/>
<path d="M91.0746 54.0477L91.1258 54.1336C88.8167 69.0983 78.5227 82.1657 64.8508 88.1561C65.0401 85.3168 65.1336 82.4435 64.9844 79.5951C76.5989 75.1475 87.0287 66.1867 91.0746 54.0477Z" fill="#FBBF52"/>
<path d="M6.28885 68.9561C19.3195 82.1928 39.6046 85.5675 57.1198 81.5061C57.6698 81.409 58.3979 81.2848 58.9301 81.1921C59.2886 82.8162 58.8655 87.8715 58.5315 90.0219C39.0079 95.8813 16.447 86.8596 6.28885 68.9561Z" fill="#4877D0"/>
</svg>
